<svg width="40" height="40" viewBox="0 0 40 40" fill="none" xmlns="http://www.w3.org/2000/svg">
<g clip-path="url(#clip0_12304_102254)">
<rect width="40" height="40" rx="20" transform="matrix(-1 0 0 1 40 0)" fill="white"/>
<rect width="40" height="40" transform="matrix(-1 0 0 1 40 0)" fill="#76B5FF"/>
<path d="M17.0743 26.7605C17.9279 26.7346 20.4606 25.9264 20.9641 25.5535L17.0743 26.7605Z" fill="#EB8682"/>
<path d="M16.723 30.7441C15.1481 32.9499 10.0559 33.6047 9.18704 33.92C7.76203 34.46 7.51965 35.92 7.49857 36.7153C7.43768 38.9812 7.17188 42.8683 7.96694 44.9224" fill="#EB8682"/>
<path d="M16.723 30.7441C17.6785 29.0217 17.0743 26.7605 17.0743 26.7605C17.0743 26.7605 15.223 26.8488 14.4807 26.4688C13.0533 25.8535 11.3578 23.6029 11.3754 20.3805C11.4158 17.4787 12.0258 14.6133 13.1704 11.9488C14.2032 9.26523 20.6116 6.757 25.4394 11.4441C25.4394 11.4441 28.0423 13.8346 26.5307 17.8076" fill="#EB8682"/>
<path d="M34.0317 44.9224C34.719 42.7094 34.4486 36.8906 34.349 36.0694C34.2495 35.2483 33.8654 33.5824 31.8315 33.0753C30.9323 32.8483 25.3012 31.9335 24.1584 30.3464" fill="#EB8682"/>
<path d="M23.882 24.3464C23.882 24.3464 25.7731 23.2676 26.5271 21.0182C27.2812 18.7688 26.5307 17.8076 26.5307 17.8076C25.9253 16.9005 23.5167 16.6782 23.5167 19.4146" fill="#EB8682"/>
<path d="M23.882 24.3464C23.738 27.2052 23.7017 28.517 24.1584 30.3464L23.882 24.3464Z" fill="#EB8682"/>
<path d="M16.723 30.7441C15.1481 32.9499 10.0559 33.6047 9.18704 33.92C7.76203 34.46 7.51965 35.92 7.49857 36.7153C7.43768 38.9812 7.17188 42.8683 7.96694 44.9224H34.0317C34.719 42.7094 34.4486 36.8906 34.349 36.0694C34.2495 35.2483 33.8654 33.5824 31.8315 33.0753C30.9323 32.8483 25.3012 31.9335 24.1584 30.3464C23.7017 28.517 23.738 27.2052 23.882 24.3464C23.882 24.3464 25.7731 23.2676 26.5271 21.0182C27.2812 18.7688 26.5307 17.8076 26.5307 17.8076C28.0423 13.8346 25.4394 11.4441 25.4394 11.4441C20.6116 6.757 14.2032 9.26523 13.1704 11.9488C12.0258 14.6133 11.4158 17.4787 11.3754 20.3805C11.3578 23.6029 13.0533 25.8535 14.4807 26.4688C15.223 26.8488 17.0743 26.7605 17.0743 26.7605C17.0743 26.7605 17.6785 29.0217 16.723 30.7441Z" fill="#EB8682"/>
<path opacity="0.4" d="M17.1011 26.6701C17.2144 27.4708 17.3901 28.6473 17.1011 29.5885C18.1725 29.3332 21.197 27.2325 21.197 25.5266C19.8736 26.0459 18.5013 26.4291 17.1011 26.6701Z" fill="#16171C"/>
<path d="M25.1505 18.4706C25.6072 18.5953 25.9186 19.2882 25.5557 20.0353" stroke="#16171C" stroke-width="1.03235" stroke-linecap="round"/>
<path d="M34.4508 35.0106C34.5508 35.8317 34.8226 41.6506 34.132 43.8635H7.94378C7.14496 41.8094 7.41202 37.9223 7.4732 35.6564C7.49437 34.8612 7.7379 33.4012 9.16966 32.8612C9.96899 32.5725 14.0587 32.0588 16.1764 30.3529L20.3528 32.3529L24.7646 29.8823C26.6676 31.0651 31.1424 31.8207 31.9214 32.0164C33.9649 32.5235 34.3508 34.1894 34.4508 35.0106Z" fill="#5954E9"/>
<path d="M22.1 32.2164C24.1 31.667 24.7153 30.7623 25.1929 30.0658C25.0294 29.3411 24.9411 28.3529 24.0588 27.9411C25.5882 28.7646 24.06 29.3282 21.2706 29.9058L22.1 32.2164Z" fill="#76B5FF"/>
<path d="M18.3035 31.9246C16.3035 31.3752 16.4106 31.0541 16.1353 30.6917C16.1353 29.827 16.1988 28.6729 17.0694 28.3305C15.7835 28.994 16.5247 29.5776 19.2565 29.9058L18.3035 31.9246Z" fill="#76B5FF"/>
<path d="M23.7058 29.1176L23.8823 27.8823C24.1784 27.9047 24.7058 28.2655 24.7058 28.5881C24.7058 28.9108 23.9822 29.0951 23.7058 29.1176Z" fill="#16171C"/>
<path d="M17.4705 29.4705L17.2352 28.3529C16.9391 28.3753 16.4705 28.5596 16.4705 28.8823C16.4705 29.205 17.1941 29.4481 17.4705 29.4705Z" fill="#16171C"/>
<g opacity="0.2">
<path d="M19.4706 29.8823L18.4706 31.52L19.3953 31.9141L19.9506 32.1388L19.4706 29.8823Z" fill="#16171C"/>
<path d="M21.0588 29.8823L20.5882 32.1176L21.4964 31.6941L21.9259 31.4588L21.0588 29.8823Z" fill="#16171C"/>
</g>
<path d="M25.4074 17.021C24.2993 16.8904 23.5559 17.339 23.2574 18.0431C22.9818 18.6995 23.0825 19.9043 22.0064 19.2389C21.0297 18.6359 21.8165 16.6917 22.2111 15.7333C19.9376 15.2927 19.7455 13.8459 19.7455 13.8459C18.7071 14.1934 16.6235 13.5586 16.5126 12.9545C15.4302 13.3577 13.9082 13.3597 12.8244 12.9601C12.4539 13.4882 12.6048 13.8459 12.2985 14.4009C10.375 13.8331 9.28744 10.3244 12.3522 8.81972C12.0012 7.17991 14.5022 5.99774 15.6549 7.20716C15.8985 5.32547 19.0857 5.29935 19.5259 6.69955C20.5289 5.66161 23.7572 5.98185 23.9642 7.82039C25.3937 7.15379 27.3709 9.01164 27.0221 10.6469C28.678 10.9001 28.9045 11.6133 28.4916 13.1112C30.0012 14.5227 29.7621 16.1659 28.3773 17.1778C28.9902 18.3576 27.4453 20.0074 26.527 20.4764C27.0988 18.1484 26.4446 17.2345 25.4074 17.021Z" fill="#050504"/>
<path d="M16.8413 18.2502C16.8413 18.5353 16.6102 18.7664 16.3251 18.7664C16.0401 18.7664 15.809 18.5353 15.809 18.2502H16.8413ZM15.0299 18.0561C15.0299 18.3412 14.7988 18.5723 14.5137 18.5723C14.2286 18.5723 13.9975 18.3412 13.9975 18.0561H15.0299ZM20.0389 18.6472C19.767 18.733 19.4771 18.5821 19.3913 18.3102C19.3055 18.0384 19.4564 17.7485 19.7283 17.6627L20.0389 18.6472ZM26.1878 17.2338L25.9661 17.6999C25.9606 17.6973 25.9551 17.6945 25.9496 17.6917L26.1878 17.2338ZM27.6321 19.1716C27.58 19.4519 27.3105 19.6369 27.0303 19.5848C26.75 19.5327 26.565 19.2632 26.6171 18.983L27.6321 19.1716ZM16.8413 18.1549C16.8413 19.0794 17.4746 19.6964 18.1038 19.6964V20.7288C16.7683 20.7288 15.809 19.5033 15.809 18.1549H16.8413ZM18.1038 19.6964C18.733 19.6964 19.3662 19.0794 19.3662 18.1549H20.3986C20.3986 19.5033 19.4392 20.7288 18.1038 20.7288V19.6964ZM19.3662 18.1549C19.3662 17.2304 18.733 16.6135 18.1038 16.6135V15.5811C19.4392 15.5811 20.3986 16.8066 20.3986 18.1549H19.3662ZM18.1038 16.6135C17.4746 16.6135 16.8413 17.2304 16.8413 18.1549H15.809C15.809 16.8066 16.7683 15.5811 18.1038 15.5811V16.6135ZM11.489 17.7573C11.489 18.6818 12.1223 19.2988 12.7515 19.2988V20.3311C11.416 20.3311 10.4567 19.1056 10.4567 17.7573H11.489ZM12.7515 19.2988C13.3807 19.2988 14.0139 18.6818 14.0139 17.7573H15.0463C15.0463 19.1056 14.0869 20.3311 12.7515 20.3311V19.2988ZM14.0139 17.7573C14.0139 16.8328 13.3807 16.2158 12.7515 16.2158V15.1835C14.0869 15.1835 15.0463 16.409 15.0463 17.7573H14.0139ZM12.7515 16.2158C12.1223 16.2158 11.489 16.8328 11.489 17.7573H10.4567C10.4567 16.409 11.416 15.1835 12.7515 15.1835V16.2158ZM15.809 18.2502C15.809 18.2467 15.8086 18.2473 15.8095 18.2503C15.8103 18.2533 15.8114 18.255 15.8112 18.2547C15.8104 18.2535 15.8001 18.2381 15.7651 18.2159C15.6893 18.1677 15.5548 18.124 15.3881 18.1138C15.221 18.1037 15.0833 18.1311 15.0096 18.1644C14.9321 18.1995 15.0299 18.1799 15.0299 18.0561H13.9975C13.9975 17.6047 14.3218 17.3426 14.5839 17.2239C14.8499 17.1036 15.165 17.066 15.4507 17.0834C15.737 17.1008 16.0552 17.177 16.3191 17.3448C16.5944 17.5198 16.8413 17.8218 16.8413 18.2502H15.809ZM19.8836 18.1549C19.7283 17.6627 19.7283 17.6627 19.7284 17.6626C19.7285 17.6626 19.7286 17.6626 19.7287 17.6626C19.7289 17.6625 19.7292 17.6624 19.7296 17.6623C19.7303 17.662 19.7313 17.6617 19.7327 17.6613C19.7354 17.6605 19.7392 17.6592 19.7443 17.6577C19.7543 17.6545 19.7691 17.6499 19.7882 17.6441C19.8264 17.6323 19.8822 17.6152 19.9535 17.5938C20.0959 17.551 20.3002 17.4907 20.5491 17.4207C21.0463 17.2807 21.7245 17.1006 22.4451 16.9411C23.1631 16.7822 23.9365 16.6409 24.6202 16.5829C24.962 16.554 25.2932 16.5447 25.5903 16.5679C25.8798 16.5905 26.1775 16.6465 26.4261 16.7759L25.9496 17.6917C25.8788 17.6549 25.74 17.615 25.5101 17.5971C25.2878 17.5798 25.0166 17.5854 24.7075 17.6116C24.0894 17.664 23.3666 17.7945 22.6682 17.9491C21.9724 18.103 21.3141 18.2778 20.8289 18.4144C20.5865 18.4826 20.3881 18.5411 20.2507 18.5824C20.1819 18.6031 20.1285 18.6194 20.0925 18.6305C20.0745 18.6361 20.0608 18.6403 20.0518 18.6432C20.0473 18.6446 20.0439 18.6456 20.0418 18.6463C20.0407 18.6466 20.0399 18.6469 20.0394 18.647C20.0392 18.6471 20.039 18.6472 20.0389 18.6472C20.0389 18.6472 20.0389 18.6472 20.0388 18.6472C20.0389 18.6472 20.0389 18.6472 19.8836 18.1549ZM26.4095 16.7676C26.8497 16.9769 27.208 17.3266 27.4289 17.7614L26.5086 18.229C26.3906 17.9969 26.1997 17.811 25.9661 17.6999L26.4095 16.7676ZM27.4289 17.7614C27.6499 18.1962 27.7212 18.692 27.6321 19.1716L26.6171 18.983C26.6648 18.7264 26.6266 18.4612 26.5086 18.229L27.4289 17.7614Z" fill="white"/>
<path d="M14.8956 18.6235C15.01 18.3624 15.3144 18.2434 15.5756 18.3578C15.8367 18.4722 15.9556 18.7766 15.8412 19.0377L14.8956 18.6235ZM15.2934 21.4853C15.5537 21.6016 15.6703 21.9069 15.554 22.1672C15.4376 22.4274 15.1323 22.5441 14.8721 22.4277L15.2934 21.4853ZM20.9351 15.951C21.1188 16.169 21.091 16.4946 20.8729 16.6783C20.6549 16.862 20.3293 16.8341 20.1456 16.6161L20.9351 15.951ZM17.9772 15.1777L17.8902 14.6689L17.8938 14.6683L17.9772 15.1777ZM17.7717 15.7651C17.5044 15.8643 17.2073 15.7281 17.1081 15.4609C17.0089 15.1936 17.145 14.8965 17.4123 14.7973L17.7717 15.7651ZM15.1947 15.1675C15.405 15.36 15.4194 15.6865 15.2269 15.8968C15.0344 16.1071 14.7079 16.1215 14.4976 15.929L15.1947 15.1675ZM12.4762 14.9918L12.2591 14.5235L12.2597 14.5232L12.4762 14.9918ZM12.4791 15.5886C12.2515 15.7602 11.9278 15.7149 11.7562 15.4873C11.5845 15.2597 11.6298 14.9361 11.8574 14.7644L12.4791 15.5886ZM15.3684 18.8306C15.8412 19.0377 15.8412 19.0377 15.8412 19.0377C15.8412 19.0377 15.8412 19.0378 15.8412 19.0378C15.8412 19.0378 15.8412 19.0379 15.8411 19.0381C15.841 19.0383 15.8408 19.0387 15.8406 19.0392C15.8401 19.0403 15.8394 19.0418 15.8385 19.0439C15.8367 19.0482 15.8339 19.0545 15.8303 19.0627C15.8231 19.0793 15.8125 19.1036 15.7989 19.1348C15.7719 19.1971 15.7331 19.2866 15.6866 19.3948C15.5935 19.6114 15.4696 19.9024 15.3459 20.201C15.2219 20.5007 15.0997 20.8038 15.0093 21.0461C14.9638 21.1678 14.9285 21.2684 14.9053 21.3429C14.8936 21.3804 14.8868 21.4055 14.8834 21.4201C14.8776 21.4446 14.8858 21.4205 14.8858 21.3741H13.8535C13.8535 21.2949 13.8695 21.222 13.8783 21.1842C13.8895 21.1365 13.9042 21.0856 13.9198 21.0355C13.9512 20.9348 13.994 20.814 14.0421 20.685C14.139 20.4256 14.2665 20.1094 14.3921 19.806C14.5182 19.5017 14.644 19.2063 14.7382 18.9871C14.7853 18.8775 14.8246 18.7868 14.8521 18.7234C14.8659 18.6917 14.8767 18.6668 14.8841 18.6498C14.8878 18.6413 14.8907 18.6348 14.8926 18.6304C14.8936 18.6281 14.8943 18.6264 14.8949 18.6253C14.8951 18.6247 14.8953 18.6243 14.8954 18.624C14.8955 18.6238 14.8955 18.6237 14.8956 18.6236C14.8956 18.6236 14.8956 18.6235 14.8956 18.6235C14.8956 18.6235 14.8956 18.6235 15.3684 18.8306ZM14.8858 21.3741C14.8858 21.2902 14.8579 21.2351 14.8479 21.2177C14.8376 21.1999 14.833 21.1982 14.8463 21.2116C14.8741 21.2394 14.9267 21.2802 15.0019 21.3278C15.0732 21.3728 15.1473 21.413 15.2054 21.4425C15.2338 21.457 15.2573 21.4683 15.273 21.4757C15.2808 21.4795 15.2867 21.4822 15.2902 21.4838C15.292 21.4846 15.2932 21.4851 15.2937 21.4854C15.294 21.4855 15.2941 21.4856 15.2941 21.4855C15.294 21.4855 15.294 21.4855 15.2939 21.4855C15.2938 21.4854 15.2937 21.4854 15.2937 21.4854C15.2936 21.4854 15.2936 21.4853 15.2936 21.4853C15.2935 21.4853 15.2934 21.4853 15.0827 21.9565C14.8721 22.4277 14.872 22.4277 14.8719 22.4276C14.8719 22.4276 14.8718 22.4276 14.8717 22.4276C14.8716 22.4275 14.8715 22.4275 14.8714 22.4274C14.8711 22.4273 14.8708 22.4271 14.8704 22.427C14.8697 22.4266 14.8688 22.4262 14.8677 22.4257C14.8655 22.4248 14.8627 22.4235 14.8592 22.4219C14.8523 22.4187 14.8429 22.4143 14.8312 22.4088C14.8079 22.3978 14.7756 22.3821 14.7373 22.3626C14.6616 22.3241 14.5574 22.2681 14.4505 22.2005C14.3474 22.1354 14.2218 22.0471 14.1158 21.941C14.0307 21.8558 13.8535 21.6577 13.8535 21.3741H14.8858ZM20.1456 16.6161C19.5587 15.9193 18.7479 15.5745 18.0607 15.687L17.8938 14.6683C19.0309 14.482 20.1802 15.0548 20.9351 15.951L20.1456 16.6161ZM18.0643 15.6864C17.9646 15.7035 17.8666 15.7298 17.7717 15.7651L17.4123 14.7973C17.5673 14.7397 17.7272 14.6967 17.8902 14.6689L18.0643 15.6864ZM14.4976 15.929C13.883 15.3663 13.1891 15.2309 12.6927 15.4603L12.2597 14.5232C13.2551 14.0632 14.3855 14.4267 15.1947 15.1675L14.4976 15.929ZM12.6933 15.4601C12.6177 15.4952 12.5458 15.5382 12.4791 15.5886L11.8574 14.7644C11.9824 14.6701 12.1171 14.5893 12.2591 14.5235L12.6933 15.4601Z" fill="#16171C"/>
<path d="M17.379 23.3075C17.0298 24.124 15.8218 24.3202 15.2713 24.2276" stroke="white" stroke-width="1.03235" stroke-miterlimit="10" stroke-linecap="round"/>
<path d="M18.0257 19.323C17.6609 19.323 17.3653 18.9174 17.3653 18.4171C17.3653 17.9168 17.6609 17.5112 18.0257 17.5112C18.3904 17.5112 18.6861 17.9168 18.6861 18.4171C18.6861 18.9174 18.3904 19.323 18.0257 19.323Z" fill="#16171C"/>
<path d="M17.5911 18.0898C17.7679 17.4169 18.6519 17.3121 19.2912 17.8721" stroke="#16171C" stroke-width="1.03235" stroke-linecap="round"/>
<path d="M12.8592 18.9958C12.4944 18.9958 12.1988 18.5903 12.1988 18.09C12.1988 17.5897 12.4944 17.1841 12.8592 17.1841C13.2239 17.1841 13.5196 17.5897 13.5196 18.09C13.5196 18.5903 13.2239 18.9958 12.8592 18.9958Z" fill="#16171C"/>
<path d="M12.4248 17.7626C12.6017 17.0897 13.4857 16.985 14.125 17.545" stroke="#16171C" stroke-width="1.03235" stroke-linecap="round"/>
</g>
<defs>
<clipPath id="clip0_12304_102254">
<rect width="40" height="40" rx="20" transform="matrix(-1 0 0 1 40 0)" fill="white"/>
</clipPath>
</defs>
</svg>
