<svg width="24" height="24" viewBox="0 0 24 24" fill="none"
  xmlns="http://www.w3.org/2000/svg">
  <path d="M3.61905 20V7.40541L10.9163 2.69913C11.5763 2.27347 12.4244 2.27349 13.0843 2.69917L20.381 7.40541V20C20.381 21.1046 19.4855 22 18.381 22H5.61905C4.51448 22 3.61905 21.1046 3.61905 20Z" fill="#ffffff"/>
  <path d="M13.0843 2.69917L12.6507 3.37146L13.0843 2.69917ZM10.9163 2.69913L11.3499 3.37144L11.3499 3.37144L10.9163 2.69913ZM22.5789 9.7072C22.9545 9.93979 23.4476 9.82382 23.6802 9.44817C23.9128 9.07252 23.7968 8.57944 23.4211 8.34685L22.5789 9.7072ZM0.578859 8.34685C0.203208 8.57944 0.0872336 9.07252 0.319824 9.44817C0.552413 9.82382 1.04549 9.93979 1.42114 9.7072L0.578859 8.34685ZM2.81905 7.40541V20H4.41905V7.40541H2.81905ZM5.61905 22.8H18.381V21.2H5.61905V22.8ZM21.181 20V7.40541H19.581V20H21.181ZM8.58129 17.0515V21.4595H10.1813V17.0515H8.58129ZM13.8194 17.0515V21.4595H15.4194V17.0515H13.8194ZM20.8146 6.73312L13.518 2.02688L12.6507 3.37146L19.9473 8.07769L20.8146 6.73312ZM10.4827 2.02683L3.18545 6.7331L4.05264 8.07771L11.3499 3.37144L10.4827 2.02683ZM19.9598 8.08558L22.5789 9.7072L23.4211 8.34685L20.8021 6.72523L19.9598 8.08558ZM3.19791 6.72523L0.578859 8.34685L1.42114 9.7072L4.04019 8.08558L3.19791 6.72523ZM13.518 2.02688C12.594 1.43092 11.4067 1.4309 10.4827 2.02683L11.3499 3.37144C11.7459 3.11604 12.2547 3.11605 12.6507 3.37146L13.518 2.02688ZM12.0003 13.6324C10.1121 13.6324 8.58129 15.1632 8.58129 17.0515H10.1813C10.1813 16.0468 10.9957 15.2324 12.0003 15.2324V13.6324ZM12.0003 15.2324C13.005 15.2324 13.8194 16.0468 13.8194 17.0515H15.4194C15.4194 15.1632 13.8886 13.6324 12.0003 13.6324V15.2324ZM18.381 22.8C19.9274 22.8 21.181 21.5464 21.181 20H19.581C19.581 20.6627 19.0437 21.2 18.381 21.2V22.8ZM2.81905 20C2.81905 21.5464 4.07265 22.8 5.61905 22.8V21.2C4.95631 21.2 4.41905 20.6627 4.41905 20H2.81905Z" fill="#888B94"/>
</svg>
